<?xml version="1.0" encoding="UTF-8" standalone="no"?>
<!-- Created with Inkscape (http://www.inkscape.org/) -->

<svg
   width="33.866753mm"
   height="33.866665mm"
   viewBox="0 0 33.866753 33.866665"
   version="1.1"
   id="svg1"
   inkscape:version="1.3.2 (091e20ef0f, 2023-11-25, custom)"
   sodipodi:docname="exploding_eye.svg"
   xmlns:inkscape="http://www.inkscape.org/namespaces/inkscape"
   xmlns:sodipodi="http://sodipodi.sourceforge.net/DTD/sodipodi-0.dtd"
   xmlns="http://www.w3.org/2000/svg"
   xmlns:svg="http://www.w3.org/2000/svg">
  <sodipodi:namedview
     id="namedview1"
     pagecolor="#505050"
     bordercolor="#ffffff"
     borderopacity="1"
     inkscape:showpageshadow="0"
     inkscape:pageopacity="0"
     inkscape:pagecheckerboard="1"
     inkscape:deskcolor="#505050"
     inkscape:document-units="px"
     inkscape:zoom="6.1783356"
     inkscape:cx="55.273786"
     inkscape:cy="72.187727"
     inkscape:window-width="2560"
     inkscape:window-height="1410"
     inkscape:window-x="0"
     inkscape:window-y="30"
     inkscape:window-maximized="1"
     inkscape:current-layer="layer1" />
  <defs
     id="defs1" />
  <g
     inkscape:label="Layer 1"
     inkscape:groupmode="layer"
     id="layer1"
     transform="translate(-69.741714,-116.67731)">
    <circle
       style="fill:#edc7c7;fill-opacity:1;stroke:#550000;stroke-width:0.765385;stroke-linejoin:bevel;stroke-dasharray:none"
       id="path1"
       cx="86.675133"
       cy="133.61064"
       r="16.55064" />
    <path
       id="circle2"
       style="fill:#ffffff;stroke:#000000;stroke-width:0.765385;stroke-linejoin:bevel;stroke-dasharray:none"
       d="m 72.276209,125.53394 a 16.55064,16.55064 0 0 0 -2.151807,8.07651 16.55064,16.55064 0 0 0 2.147673,8.07031 8.4666662,8.4666662 0 0 0 5.936588,-8.07031 8.4666662,8.4666662 0 0 0 -5.932454,-8.07651 z" />
    <path
       id="path10"
       style="fill:#d40000;stroke:none;stroke-width:1.51006;stroke-linejoin:bevel;stroke-dasharray:none"
       d="m 70.612228,129.7497 a 16.55064,16.55064 0 0 0 -0.487826,3.86075 16.55064,16.55064 0 0 0 0.485242,3.85093 2.1166666,4.2333331 0 0 0 1.248502,-3.85403 2.1166666,4.2333331 0 0 0 -1.245918,-3.85765 z" />
  </g>
</svg>
