<?xml version="1.0" encoding="UTF-8" standalone="no"?>
<!-- Created with Inkscape (http://www.inkscape.org/) -->

<svg
   width="32"
   height="32"
   viewBox="0 0 8.4666665 8.4666666"
   version="1.1"
   id="svg1"
   xml:space="preserve"
   inkscape:version="1.4.3 (0d15f75042, 2025-12-25)"
   sodipodi:docname="burn.svg"
   xmlns:inkscape="http://www.inkscape.org/namespaces/inkscape"
   xmlns:sodipodi="http://sodipodi.sourceforge.net/DTD/sodipodi-0.dtd"
   xmlns:xlink="http://www.w3.org/1999/xlink"
   xmlns="http://www.w3.org/2000/svg"
   xmlns:svg="http://www.w3.org/2000/svg"><sodipodi:namedview
     id="namedview1"
     pagecolor="#505050"
     bordercolor="#ffffff"
     borderopacity="1"
     inkscape:showpageshadow="0"
     inkscape:pageopacity="0"
     inkscape:pagecheckerboard="1"
     inkscape:deskcolor="#505050"
     inkscape:document-units="px"
     inkscape:zoom="4"
     inkscape:cx="45.375"
     inkscape:cy="1.625"
     inkscape:window-width="2048"
     inkscape:window-height="1100"
     inkscape:window-x="0"
     inkscape:window-y="0"
     inkscape:window-maximized="1"
     inkscape:current-layer="layer1" /><defs
     id="defs1"><linearGradient
       id="linearGradient6"
       inkscape:collect="always"><stop
         style="stop-color:#ff6600;stop-opacity:1;"
         offset="0"
         id="stop7" /><stop
         style="stop-color:#a82c00;stop-opacity:1;"
         offset="1"
         id="stop8" /></linearGradient><linearGradient
       inkscape:collect="always"
       xlink:href="#linearGradient6"
       id="linearGradient8"
       x1="1.3143688"
       y1="4.2329354"
       x2="7.1514325"
       y2="4.2329354"
       gradientUnits="userSpaceOnUse" /></defs><g
     inkscape:label="Layer 1"
     inkscape:groupmode="layer"
     id="layer1"><path
       style="fill:url(#linearGradient8);stroke:#000000;stroke-width:0.34395833;stroke-dasharray:none;paint-order:markers stroke fill"
       d="m 3.2175306,7.7468657 c 0,0 -1.1963322,-0.5981661 -1.3363285,-0.9927011 C 1.7412057,6.3596294 1.5375747,5.6851016 1.5503017,5.2651126 1.5630286,4.8451238 1.7030249,4.7305812 1.677571,4.4378615 1.6521171,4.145142 1.4103053,3.7378797 1.5121209,3.5978835 c 0.1018151,-0.1399962 0.5854392,0.2799926 0.62362,0.3945352 0.038181,0.1145423 0.4963506,1.043609 0.6108931,1.043609 0.1145423,0 0.3054465,0.089088 0.2799927,-0.012726 C 3.0011724,4.9214865 2.7593609,3.8906042 2.9502648,3.521523 3.1411691,3.1524418 3.3448001,2.1979214 3.6757003,1.9306557 4.0066009,1.6633899 4.3502284,1.0143161 4.821125,0.88704667 5.2920216,0.75977719 5.6992839,0.61978092 5.7247377,0.7215964 5.7501915,0.82341155 5.4701989,1.9306557 5.4829258,2.3379177 5.4956518,2.7451798 5.584741,2.9615378 5.6611032,3.1142611 5.7374642,3.2669843 6.0556382,3.8015156 6.2210883,3.979693 6.3865384,4.15787 6.8065276,4.6287669 6.8447085,4.8705786 6.8828895,5.1123905 7.0737934,6.054184 6.9210695,6.232361 6.7683464,6.4105383 5.6356486,7.73414 5.4574715,7.73414 5.2792942,7.73414 5.3556564,6.8050734 5.4320175,6.5123537 5.5083794,6.2196342 5.1520253,6.2578151 4.9611211,6.3723573 4.7702169,6.4868999 4.8211247,6.2959958 4.8211247,6.1432725 4.8211247,5.9905492 4.7060901,4.9978481 4.5029514,4.9087593 4.2998127,4.8196696 4.1593242,4.7305812 4.0829626,4.7051274 4.0066009,4.679673 4.2102321,4.9851198 4.1720511,5.3414741 4.1338704,5.6978285 3.6502466,6.3469025 3.5484312,6.5632604 3.4466155,6.7796184 3.5866119,7.5432346 3.4593424,7.6959579 3.3320732,7.8486814 3.2175306,7.7468657 3.2175306,7.7468657 Z"
       id="path1" /></g></svg>
