<?xml version="1.0" encoding="UTF-8" standalone="no"?>
<!-- Created with Inkscape (http://www.inkscape.org/) -->

<svg
   version="1.1"
   id="svg1"
   width="32"
   height="32"
   viewBox="0 0 32 32"
   sodipodi:docname="cold.svg"
   inkscape:version="1.3.2 (091e20ef0f, 2023-11-25, custom)"
   xmlns:inkscape="http://www.inkscape.org/namespaces/inkscape"
   xmlns:sodipodi="http://sodipodi.sourceforge.net/DTD/sodipodi-0.dtd"
   xmlns="http://www.w3.org/2000/svg"
   xmlns:svg="http://www.w3.org/2000/svg">
  <defs
     id="defs1" />
  <sodipodi:namedview
     id="namedview1"
     pagecolor="#505050"
     bordercolor="#ffffff"
     borderopacity="1"
     inkscape:showpageshadow="0"
     inkscape:pageopacity="0"
     inkscape:pagecheckerboard="1"
     inkscape:deskcolor="#505050"
     inkscape:zoom="22.627417"
     inkscape:cx="20.638679"
     inkscape:cy="14.893437"
     inkscape:window-width="2560"
     inkscape:window-height="1410"
     inkscape:window-x="0"
     inkscape:window-y="30"
     inkscape:window-maximized="1"
     inkscape:current-layer="layer1"
     showguides="true"
     inkscape:lockguides="true" />
  <g
     inkscape:groupmode="layer"
     id="layer1"
     inkscape:label="Layer">
    <path
       id="path3"
       style="fill:#55ddff;stroke-width:0.5;stroke-linecap:round;stroke-linejoin:round;stroke:#000000;stroke-dasharray:none"
       inkscape:label="path3"
       inkscape:transform-center-y="-8.7154472"
       d="M 16 3.1796875 L 14.269531 8 L 14.769531 8.7539062 L 14.269531 9.5996094 L 14.269531 10.791016 A 5.5 5.5 0 0 0 12.347656 11.894531 L 11.292969 11.285156 L 10.271484 11.273438 L 9.9375 10.501953 L 4.8964844 9.5898438 L 8.2070312 13.498047 L 9.109375 13.441406 L 9.5917969 14.298828 L 10.626953 14.894531 A 5.5 5.5 0 0 0 10.5 16 A 5.5 5.5 0 0 0 10.626953 17.105469 L 9.5625 17.71875 L 9.0410156 18.597656 L 8.2070312 18.501953 L 4.8964844 22.410156 L 9.9375 21.498047 L 10.339844 20.6875 L 11.322266 20.699219 L 12.347656 20.105469 A 5.5 5.5 0 0 0 14.269531 21.208984 L 14.269531 22.433594 L 14.769531 23.324219 L 14.269531 24 L 16 28.820312 L 17.730469 24 L 17.230469 23.246094 L 17.730469 22.400391 L 17.730469 21.208984 A 5.5 5.5 0 0 0 19.652344 20.105469 L 20.707031 20.714844 L 21.728516 20.726562 L 22.0625 21.498047 L 27.103516 22.410156 L 23.792969 18.501953 L 22.890625 18.558594 L 22.408203 17.701172 L 21.373047 17.105469 A 5.5 5.5 0 0 0 21.5 16 A 5.5 5.5 0 0 0 21.384766 14.886719 L 22.4375 14.28125 L 22.958984 13.402344 L 23.792969 13.498047 L 27.103516 9.5898438 L 22.0625 10.501953 L 21.660156 11.3125 L 20.677734 11.300781 L 19.65625 11.890625 A 5.5 5.5 0 0 0 17.730469 10.78125 L 17.730469 9.5664062 L 17.230469 8.6757812 L 17.730469 8 L 16 3.1796875 z M 16 12.539062 A 3.46 3.46 0 0 1 19.460938 16 A 3.46 3.46 0 0 1 16 19.460938 A 3.46 3.46 0 0 1 12.539062 16 A 3.46 3.46 0 0 1 16 12.539062 z " />
    <circle
       style="fill:#55ddff;stroke-width:0.6;stroke-linecap:round;stroke-linejoin:round;stroke:#000000;stroke-dasharray:none"
       id="path1"
       cx="16"
       cy="16"
       r="1.7300813" />
  </g>
</svg>
