<?xml version="1.0" encoding="UTF-8" standalone="no"?>
<!-- Created with Inkscape (http://www.inkscape.org/) -->

<svg
   width="32"
   height="32"
   viewBox="0 0 8.4666665 8.4666666"
   version="1.1"
   id="svg1"
   xml:space="preserve"
   inkscape:version="1.3.2 (091e20ef0f, 2023-11-25, custom)"
   sodipodi:docname="slash.svg"
   xmlns:inkscape="http://www.inkscape.org/namespaces/inkscape"
   xmlns:sodipodi="http://sodipodi.sourceforge.net/DTD/sodipodi-0.dtd"
   xmlns="http://www.w3.org/2000/svg"
   xmlns:svg="http://www.w3.org/2000/svg"><sodipodi:namedview
     id="namedview1"
     pagecolor="#505050"
     bordercolor="#ffffff"
     borderopacity="1"
     inkscape:showpageshadow="0"
     inkscape:pageopacity="0"
     inkscape:pagecheckerboard="1"
     inkscape:deskcolor="#505050"
     inkscape:document-units="mm"
     inkscape:zoom="24.793973"
     inkscape:cx="16.052288"
     inkscape:cy="15.769962"
     inkscape:window-width="2560"
     inkscape:window-height="1410"
     inkscape:window-x="0"
     inkscape:window-y="30"
     inkscape:window-maximized="1"
     inkscape:current-layer="layer1" /><defs
     id="defs1" /><g
     inkscape:label="Layer 1"
     inkscape:groupmode="layer"
     id="layer1"><path
       style="opacity:1;fill:#996767;stroke:#000000;stroke-width:0.238125;stroke-linecap:round;stroke-linejoin:round;stroke-dasharray:none;fill-opacity:1"
       d="m 7.3290467,7.5986875 c -1.28836,-0.045 -2.60596,-0.24048 -4.17887,-1.74893 -1.31461,-1.39593 -2.30047002,-2.83259 -2.35255002,-4.36459 -0.021,-0.61902002 0.59734002,-0.68097002 1.28462002,-0.57267002 0.50417,0.0795 1.04128,0.32719002 1.62511,0.71196002 -0.48149,-0.18739 -0.95504,-0.26908 -1.31556,-0.0465 -0.22877,0.14126 -0.22014,0.43659 -0.18573,0.71195 0.063,0.50355 0.22552,0.97417 0.51075,1.43939 0.40218,0.73268 1.05572,1.38155 1.76441,2.01205 0.74463,0.71506 1.61457,1.27973 2.77044,1.5013 0.16857,0.0912 0.28846,0.13368 0.41789,0.18573 -0.10174,0.0509 -0.19899,0.0995 -0.34051,0.17027 z"
       id="path1"
       sodipodi:nodetypes="ccsscssccccc" /></g></svg>
