<?xml version="1.0" encoding="UTF-8" standalone="no"?>
<!-- Created with Inkscape (http://www.inkscape.org/) -->

<svg
   width="32"
   height="32"
   viewBox="0 0 8.4666665 8.4666666"
   version="1.1"
   id="svg1"
   xml:space="preserve"
   inkscape:version="1.3.2 (091e20ef0f, 2023-11-25, custom)"
   sodipodi:docname="viral.svg"
   xmlns:inkscape="http://www.inkscape.org/namespaces/inkscape"
   xmlns:sodipodi="http://sodipodi.sourceforge.net/DTD/sodipodi-0.dtd"
   xmlns:xlink="http://www.w3.org/1999/xlink"
   xmlns="http://www.w3.org/2000/svg"
   xmlns:svg="http://www.w3.org/2000/svg"><sodipodi:namedview
     id="namedview1"
     pagecolor="#505050"
     bordercolor="#ffffff"
     borderopacity="1"
     inkscape:showpageshadow="0"
     inkscape:pageopacity="0"
     inkscape:pagecheckerboard="1"
     inkscape:deskcolor="#505050"
     inkscape:document-units="px"
     inkscape:zoom="24.793973"
     inkscape:cx="21.658489"
     inkscape:cy="16.092621"
     inkscape:window-width="2560"
     inkscape:window-height="1410"
     inkscape:window-x="0"
     inkscape:window-y="30"
     inkscape:window-maximized="1"
     inkscape:current-layer="layer1" /><defs
     id="defs1"><linearGradient
       id="linearGradient3"
       inkscape:collect="always"><stop
         style="stop-color:#ffaacc;stop-opacity:1;"
         offset="0"
         id="stop4" /><stop
         style="stop-color:#ff79af;stop-opacity:1;"
         offset="1"
         id="stop5" /></linearGradient><linearGradient
       id="linearGradient2"
       inkscape:collect="always"><stop
         style="stop-color:#ffaacc;stop-opacity:1;"
         offset="0"
         id="stop2" /><stop
         style="stop-color:#ff78ac;stop-opacity:1;"
         offset="1"
         id="stop3" /></linearGradient><radialGradient
       inkscape:collect="always"
       xlink:href="#linearGradient2"
       id="radialGradient3"
       cx="5.3150945"
       cy="4.8912191"
       fx="5.3150945"
       fy="4.8912191"
       r="3.0692739"
       gradientTransform="matrix(-0.99999997,0.94765146,-0.65190981,-0.68779133,12.218862,3.5613882)"
       gradientUnits="userSpaceOnUse" /><radialGradient
       inkscape:collect="always"
       xlink:href="#linearGradient3"
       id="radialGradient5"
       cx="2.8050284"
       cy="2.5298924"
       fx="2.8050284"
       fy="2.5298924"
       r="1.5463495"
       gradientTransform="matrix(-1.0282359,0.93925692,-0.63346813,-0.69348519,6.9014711,1.9374504)"
       gradientUnits="userSpaceOnUse" /></defs><g
     inkscape:label="Layer 1"
     inkscape:groupmode="layer"
     id="layer1"><path
       id="path1"
       style="fill:url(#radialGradient3);stroke:#000000;stroke-width:0.21166666;stroke-linecap:round;stroke-linejoin:round;opacity:1;stroke-dasharray:none;fill-opacity:1"
       d="M 6.4946939 1.8805053 C 6.4054737 1.8807265 6.3170047 1.8884902 6.2326944 1.9016927 C 5.856652 1.9605784 5.5489145 2.2418166 5.2368896 2.4597981 C 4.761641 2.7918084 4.3783775 3.2417462 3.91604 3.591512 C 3.4921107 3.9122213 2.9652653 4.1002188 2.5879557 4.4746622 C 2.195784 4.8638548 1.7721465 5.3067259 1.659847 5.847705 C 1.5792315 6.2360533 1.6103673 6.7258138 1.8789551 7.0176594 C 2.2392759 7.4091816 2.9027321 7.5710485 3.4183959 7.4398559 C 4.1355611 7.2573982 4.4743796 6.4032574 5.0177815 5.9009317 C 5.5908221 5.3712077 6.2906622 4.9634151 6.768579 4.3465047 C 7.1164811 3.8974214 7.5259382 3.3975314 7.5457925 2.8298014 C 7.5549691 2.5673991 7.4397961 2.2711547 7.2362507 2.1052978 C 7.0377828 1.9435783 6.7623545 1.879842 6.4946939 1.8805053 z M 3.0365071 5.2146687 C 3.101138 5.2128701 3.1653214 5.2247436 3.2220255 5.2518757 C 3.3487484 5.3384715 3.2747355 5.9158079 3.2747355 5.9686278 C 3.2747355 6.0214518 2.8355475 6.1123167 2.7011271 5.9763793 C 2.5560639 5.8296792 2.5845755 5.5158071 2.71663 5.3572957 C 2.7889461 5.2704912 2.9131209 5.2181025 3.0365071 5.2146687 z " /><path
       style="opacity:1;fill:url(#radialGradient5);stroke:#000000;stroke-width:0.18520833;stroke-linecap:round;stroke-linejoin:round;stroke-dasharray:none;fill-opacity:1"
       d="M 1.320503,3.9011434 C 1.607731,4.0287169 1.9615681,3.841098 2.2410823,3.6974084 2.773322,3.4238004 3.1889461,2.9534938 3.5766769,2.4976372 3.7335348,2.3132188 3.915842,2.1226171 3.9690547,1.8864329 4.0125285,1.6934748 4.0463991,1.4234621 3.8935974,1.2978658 3.7202698,1.155398 3.424147,1.2457377 3.2220275,1.3431402 2.9397478,1.4791724 2.84526,1.8581843 2.5881859,2.0373475 2.3965878,2.1708783 2.1374515,2.177926 1.939253,2.3014481 1.701887,2.4493803 1.4655352,2.6254255 1.3129573,2.8598323 1.187552,3.0524935 1.0780797,3.2876452 1.1016768,3.5163109 1.1168244,3.6630972 1.1856411,3.841244 1.320503,3.9011434 Z"
       id="path2"
       sodipodi:nodetypes="sssssssssss" /></g></svg>
