<?xml version="1.0" encoding="UTF-8" standalone="no"?>
<!-- Created with Inkscape (http://www.inkscape.org/) -->

<svg
   width="34.036507mm"
   height="34.03627mm"
   viewBox="0 0 34.036507 34.03627"
   version="1.1"
   id="svg1"
   xml:space="preserve"
   inkscape:version="1.3.2 (091e20ef0f, 2023-11-25, custom)"
   sodipodi:docname="shuriken.svg"
   xmlns:inkscape="http://www.inkscape.org/namespaces/inkscape"
   xmlns:sodipodi="http://sodipodi.sourceforge.net/DTD/sodipodi-0.dtd"
   xmlns="http://www.w3.org/2000/svg"
   xmlns:svg="http://www.w3.org/2000/svg"><sodipodi:namedview
     id="namedview1"
     pagecolor="#505050"
     bordercolor="#ffffff"
     borderopacity="1"
     inkscape:showpageshadow="0"
     inkscape:pageopacity="0"
     inkscape:pagecheckerboard="1"
     inkscape:deskcolor="#505050"
     inkscape:document-units="mm"
     inkscape:zoom="8"
     inkscape:cx="49.75"
     inkscape:cy="61"
     inkscape:window-width="2560"
     inkscape:window-height="1410"
     inkscape:window-x="0"
     inkscape:window-y="30"
     inkscape:window-maximized="1"
     inkscape:current-layer="layer1" /><defs
     id="defs1" /><g
     inkscape:label="Layer 1"
     inkscape:groupmode="layer"
     id="layer1"
     transform="translate(-88.013059,-131.48197)"><path
       id="path1"
       style="opacity:1;fill:#000000;stroke:#ffffff;stroke-width:0.15875;stroke-linecap:round;stroke-linejoin:round"
       d="M 94.85967 131.56155 C 92.388115 131.55655 90.882768 131.70799 89.492038 132.50981 C 91.886942 133.60085 93.912578 135.06163 95.510793 136.94934 C 96.699204 138.16476 97.541979 139.5355 97.87654 141.13513 L 97.87654 141.62915 C 96.567326 143.73884 94.703909 145.69458 92.370416 147.51975 C 90.352916 150.47531 88.813657 153.74282 88.102976 157.55066 C 88.056756 160.71082 88.124566 162.44975 89.040903 164.03916 C 90.131939 161.64427 91.592699 159.61862 93.480426 158.0204 C 94.696484 156.83135 96.068061 155.98834 97.6688 155.65414 L 98.160243 155.65414 C 100.26992 156.96335 102.22569 158.82728 104.05084 161.16078 C 107.00642 163.17827 110.27391 164.71753 114.08175 165.42822 C 117.24189 165.47442 118.98032 165.40672 120.56973 164.49029 C 118.17482 163.39925 116.14971 161.93848 114.55149 160.05077 C 113.36245 158.8347 112.51943 157.46314 112.18523 155.86239 L 112.18523 155.37095 C 113.49444 153.26126 115.35837 151.30552 117.69187 149.48035 C 119.70938 146.52478 121.24862 143.25729 121.95931 139.44944 C 122.00551 136.28929 121.93771 134.55087 121.02138 132.96147 C 119.93034 135.35637 118.46959 137.38149 116.58186 138.9797 C 115.3658 140.16875 113.99421 141.01178 112.39348 141.34597 L 111.90204 141.34597 C 109.79237 140.03678 107.83661 138.17282 106.01144 135.83933 C 103.05587 133.82184 99.78837 132.28258 95.980531 131.57189 C 95.585512 131.56589 95.212749 131.56185 94.85967 131.56155 z M 105.03114 143.7267 A 4.7734656 4.7734656 0 0 1 109.80501 148.50005 A 4.7734656 4.7734656 0 0 1 105.03114 153.2734 A 4.7734656 4.7734656 0 0 1 100.25779 148.50005 A 4.7734656 4.7734656 0 0 1 105.03114 143.7267 z " /></g></svg>
